<svg xmlns="http://www.w3.org/2000/svg" viewBox="0 0 1440 320"><path fill="#10b981" fill-opacity="1" d="M0,288L20,282.7C40,277,80,267,120,218.7C160,171,200,85,240,58.7C280,32,320,64,360,112C400,160,440,224,480,224C520,224,560,160,600,112C640,64,680,32,720,42.7C760,53,800,107,840,122.7C880,139,920,117,960,133.3C1000,149,1040,203,1080,213.3C1120,224,1160,192,1200,160C1240,128,1280,96,1320,80C1360,64,1400,64,1420,64L1440,64L1440,320L1420,320C1400,320,1360,320,1320,320C1280,320,1240,320,1200,320C1160,320,1120,320,1080,320C1040,320,1000,320,960,320C920,320,880,320,840,320C800,320,760,320,720,320C680,320,640,320,600,320C560,320,520,320,480,320C440,320,400,320,360,320C320,320,280,320,240,320C200,320,160,320,120,320C80,320,40,320,20,320L0,320Z"></path></svg>