<svg xmlns="http://www.w3.org/2000/svg" viewBox="0 0 1440 320"><path fill="#6366f1" fill-opacity="1" d="M0,224L34.3,240C68.6,256,137,288,206,277.3C274.3,267,343,213,411,165.3C480,117,549,75,617,96C685.7,117,754,203,823,208C891.4,213,960,139,1029,128C1097.1,117,1166,171,1234,165.3C1302.9,160,1371,96,1406,64L1440,32L1440,320L1405.7,320C1371.4,320,1303,320,1234,320C1165.7,320,1097,320,1029,320C960,320,891,320,823,320C754.3,320,686,320,617,320C548.6,320,480,320,411,320C342.9,320,274,320,206,320C137.1,320,69,320,34,320L0,320Z"></path></svg>