<svg xmlns="http://www.w3.org/2000/svg" viewBox="0 0 1440 320"><path fill="#6366f1" fill-opacity="1" d="M0,128L15,128C30,128,60,128,90,112C120,96,150,64,180,58.7C210,53,240,75,270,74.7C300,75,330,53,360,42.7C390,32,420,32,450,48C480,64,510,96,540,117.3C570,139,600,149,630,170.7C660,192,690,224,720,224C750,224,780,192,810,192C840,192,870,224,900,208C930,192,960,128,990,90.7C1020,53,1050,43,1080,64C1110,85,1140,139,1170,138.7C1200,139,1230,85,1260,101.3C1290,117,1320,203,1350,250.7C1380,299,1410,309,1425,314.7L1440,320L1440,0L1425,0C1410,0,1380,0,1350,0C1320,0,1290,0,1260,0C1230,0,1200,0,1170,0C1140,0,1110,0,1080,0C1050,0,1020,0,990,0C960,0,930,0,900,0C870,0,840,0,810,0C780,0,750,0,720,0C690,0,660,0,630,0C600,0,570,0,540,0C510,0,480,0,450,0C420,0,390,0,360,0C330,0,300,0,270,0C240,0,210,0,180,0C150,0,120,0,90,0C60,0,30,0,15,0L0,0Z"></path></svg>