<svg xmlns="http://www.w3.org/2000/svg" viewBox="0 0 1440 320"><path fill="#10b981" fill-opacity="1" d="M0,288L10.4,288C20.9,288,42,288,63,272C83.5,256,104,224,125,208C146.1,192,167,192,188,186.7C208.7,181,230,171,250,186.7C271.3,203,292,245,313,250.7C333.9,256,355,224,376,192C396.5,160,417,128,438,144C459.1,160,480,224,501,250.7C521.7,277,543,267,563,256C584.3,245,605,235,626,197.3C647,160,668,96,689,80C709.6,64,730,96,751,112C772.2,128,793,128,814,117.3C834.8,107,856,85,877,64C897.4,43,918,21,939,21.3C960,21,981,43,1002,74.7C1022.6,107,1043,149,1064,170.7C1085.2,192,1106,192,1127,181.3C1147.8,171,1169,149,1190,122.7C1210.4,96,1231,64,1252,90.7C1273,117,1294,203,1315,213.3C1335.7,224,1357,160,1377,154.7C1398.3,149,1419,203,1430,229.3L1440,256L1440,0L1429.6,0C1419.1,0,1398,0,1377,0C1356.5,0,1336,0,1315,0C1293.9,0,1273,0,1252,0C1231.3,0,1210,0,1190,0C1168.7,0,1148,0,1127,0C1106.1,0,1085,0,1064,0C1043.5,0,1023,0,1002,0C980.9,0,960,0,939,0C918.3,0,897,0,877,0C855.7,0,835,0,814,0C793,0,772,0,751,0C730.4,0,710,0,689,0C667.8,0,647,0,626,0C605.2,0,584,0,563,0C542.6,0,522,0,501,0C480,0,459,0,438,0C417.4,0,397,0,376,0C354.8,0,334,0,313,0C292.2,0,271,0,250,0C229.6,0,209,0,188,0C167,0,146,0,125,0C104.3,0,83,0,63,0C41.7,0,21,0,10,0L0,0Z"></path></svg>